<svg xmlns="http://www.w3.org/2000/svg" xmlns:xlink="http://www.w3.org/1999/xlink" viewBox="0 0 328.66 371.21"><defs><style>.cls-1{isolation:isolate;}.cls-2{fill:#e7ecff;}.cls-3{fill:url(#Áåçûìÿííûé_ãðàäèåíò_79);}.cls-4{fill:url(#Áåçûìÿííûé_ãðàäèåíò_290);}.cls-5{fill:url(#Áåçûìÿííûé_ãðàäèåíò_26);}.cls-6{fill:url(#Áåçûìÿííûé_ãðàäèåíò_14);}.cls-100,.cls-101,.cls-102,.cls-103,.cls-104,.cls-105,.cls-106,.cls-107,.cls-108,.cls-109,.cls-110,.cls-112,.cls-114,.cls-115,.cls-116,.cls-117,.cls-118,.cls-119,.cls-120,.cls-121,.cls-122,.cls-123,.cls-124,.cls-125,.cls-127,.cls-128,.cls-133,.cls-135,.cls-19,.cls-21,.cls-22,.cls-26,.cls-27,.cls-28,.cls-29,.cls-30,.cls-31,.cls-32,.cls-33,.cls-34,.cls-35,.cls-36,.cls-37,.cls-38,.cls-39,.cls-40,.cls-41,.cls-42,.cls-43,.cls-45,.cls-47,.cls-48,.cls-49,.cls-50,.cls-51,.cls-54,.cls-59,.cls-60,.cls-61,.cls-62,.cls-63,.cls-64,.cls-66,.cls-7,.cls-71,.cls-74,.cls-76,.cls-82,.cls-89,.cls-90,.cls-91,.cls-92,.cls-97,.cls-98,.cls-99{mix-blend-mode:multiply;}.cls-7{fill:url(#Áåçûìÿííûé_ãðàäèåíò_183);}.cls-8{fill:url(#Áåçûìÿííûé_ãðàäèåíò_96);}.cls-9{fill:#392786;}.cls-10{fill:url(#Áåçûìÿííûé_ãðàäèåíò_280);}.cls-11{fill:url(#Áåçûìÿííûé_ãðàäèåíò_26-2);}.cls-12{fill:url(#Áåçûìÿííûé_ãðàäèåíò_257);}.cls-13{fill:url(#Áåçûìÿííûé_ãðàäèåíò_288);}.cls-14{fill:url(#Áåçûìÿííûé_ãðàäèåíò_288-2);}.cls-15{fill:url(#Áåçûìÿííûé_ãðàäèåíò_290-2);}.cls-16{fill:#ffe4ec;}.cls-17{fill:#6c2a51;}.cls-18{fill:#7f6186;}.cls-19{fill:#feb1c8;}.cls-129,.cls-20,.cls-44,.cls-46{fill:#fff;}.cls-21{fill:#e0a1bc;}.cls-22{fill:url(#Áåçûìÿííûé_ãðàäèåíò_295);}.cls-23{fill:#9f2361;}.cls-115,.cls-24,.cls-91{opacity:0.62;}.cls-24{fill:url(#Áåçûìÿííûé_ãðàäèåíò_52);}.cls-25{fill:url(#Áåçûìÿííûé_ãðàäèåíò_123);}.cls-103,.cls-133,.cls-26,.cls-42,.cls-62,.cls-63{opacity:0.8;}.cls-26{fill:url(#Áåçûìÿííûé_ãðàäèåíò_75);}.cls-27{fill:url(#Áåçûìÿííûé_ãðàäèåíò_240);}.cls-28{fill:url(#Áåçûìÿííûé_ãðàäèåíò_240-2);}.cls-29{fill:url(#Áåçûìÿííûé_ãðàäèåíò_301);}.cls-30{fill:url(#Áåçûìÿííûé_ãðàäèåíò_298);}.cls-31{fill:url(#Áåçûìÿííûé_ãðàäèåíò_299);}.cls-32{fill:url(#Áåçûìÿííûé_ãðàäèåíò_298-2);}.cls-33{fill:url(#Áåçûìÿííûé_ãðàäèåíò_298-3);}.cls-34{fill:url(#Áåçûìÿííûé_ãðàäèåíò_298-4);}.cls-104,.cls-35,.cls-36,.cls-37,.cls-45,.cls-46,.cls-60,.cls-61,.cls-92{opacity:0.5;}.cls-35{fill:url(#Áåçûìÿííûé_ãðàäèåíò_239);}.cls-36{fill:url(#Áåçûìÿííûé_ãðàäèåíò_240-3);}.cls-37{fill:url(#Áåçûìÿííûé_ãðàäèåíò_240-4);}.cls-38{fill:url(#Áåçûìÿííûé_ãðàäèåíò_307);}.cls-39{fill:url(#Áåçûìÿííûé_ãðàäèåíò_239-2);}.cls-40{fill:url(#Áåçûìÿííûé_ãðàäèåíò_240-5);}.cls-41{fill:url(#Áåçûìÿííûé_ãðàäèåíò_5);}.cls-42{fill:url(#Áåçûìÿííûé_ãðàäèåíò_311);}.cls-43{fill:url(#Áåçûìÿííûé_ãðàäèåíò_311-2);}.cls-129,.cls-44,.cls-46{mix-blend-mode:soft-light;}.cls-44{opacity:0.2;}.cls-45{fill:url(#Áåçûìÿííûé_ãðàäèåíò_312);}.cls-47{fill:url(#Áåçûìÿííûé_ãðàäèåíò_240-6);}.cls-48{fill:url(#Áåçûìÿííûé_ãðàäèåíò_240-7);}.cls-49{fill:url(#Áåçûìÿííûé_ãðàäèåíò_240-8);}.cls-50{fill:url(#Áåçûìÿííûé_ãðàäèåíò_240-9);}.cls-51{fill:url(#Áåçûìÿííûé_ãðàäèåíò_240-10);}.cls-52{fill:url(#Áåçûìÿííûé_ãðàäèåíò_257-2);}.cls-53{fill:url(#Áåçûìÿííûé_ãðàäèåíò_257-3);}.cls-54{fill:url(#Áåçûìÿííûé_ãðàäèåíò_298-5);}.cls-55{fill:url(#Áåçûìÿííûé_ãðàäèåíò_159);}.cls-56{fill:url(#Áåçûìÿííûé_ãðàäèåíò_123-2);}.cls-57{fill:url(#Áåçûìÿííûé_ãðàäèåíò_123-3);}.cls-58{fill:url(#Áåçûìÿííûé_ãðàäèåíò_14-2);}.cls-59{fill:url(#Áåçûìÿííûé_ãðàäèåíò_200);}.cls-60{fill:url(#Áåçûìÿííûé_ãðàäèåíò_183-2);}.cls-61{fill:url(#Áåçûìÿííûé_ãðàäèåíò_183-3);}.cls-62{fill:url(#Áåçûìÿííûé_ãðàäèåíò_311-3);}.cls-63{fill:url(#Áåçûìÿííûé_ãðàäèåíò_311-4);}.cls-64{fill:url(#Áåçûìÿííûé_ãðàäèåíò_11);}.cls-65{fill:url(#Áåçûìÿííûé_ãðàäèåíò_50);}.cls-66{fill:url(#Áåçûìÿííûé_ãðàäèåíò_239-3);}.cls-67{fill:url(#Áåçûìÿííûé_ãðàäèåíò_95);}.cls-68{fill:url(#Áåçûìÿííûé_ãðàäèåíò_143);}.cls-69{fill:url(#Áåçûìÿííûé_ãðàäèåíò_133);}.cls-70{fill:url(#Áåçûìÿííûé_ãðàäèåíò_79-2);}.cls-71{fill:#ed90bc;}.cls-72{fill:url(#Áåçûìÿííûé_ãðàäèåíò_26-3);}.cls-73{fill:url(#Áåçûìÿííûé_ãðàäèåíò_14-3);}.cls-74{fill:#eb90bc;}.cls-75{fill:url(#Áåçûìÿííûé_ãðàäèåíò_111);}.cls-76{fill:#e0a1c6;}.cls-77{fill:url(#Áåçûìÿííûé_ãðàäèåíò_95-2);}.cls-78{fill:url(#Áåçûìÿííûé_ãðàäèåíò_26-4);}.cls-79{fill:url(#Áåçûìÿííûé_ãðàäèåíò_159-2);}.cls-80{fill:url(#Áåçûìÿííûé_ãðàäèåíò_54);}.cls-81{fill:url(#Áåçûìÿííûé_ãðàäèåíò_14-4);}.cls-82{fill:url(#Áåçûìÿííûé_ãðàäèåíò_200-2);}.cls-83{fill:url(#Áåçûìÿííûé_ãðàäèåíò_54-2);}.cls-84{fill:url(#Áåçûìÿííûé_ãðàäèåíò_149);}.cls-85{fill:url(#Áåçûìÿííûé_ãðàäèåíò_248);}.cls-86{fill:url(#Áåçûìÿííûé_ãðàäèåíò_123-4);}.cls-87{fill:url(#Áåçûìÿííûé_ãðàäèåíò_14-5);}.cls-88{fill:url(#Áåçûìÿííûé_ãðàäèåíò_14-6);}.cls-89{fill:url(#Áåçûìÿííûé_ãðàäèåíò_183-4);}.cls-90{fill:url(#Áåçûìÿííûé_ãðàäèåíò_183-5);}.cls-91{fill:#a44f63;}.cls-92{fill:url(#Áåçûìÿííûé_ãðàäèåíò_188);}.cls-93{fill:#9d86a2;}.cls-94{fill:url(#Áåçûìÿííûé_ãðàäèåíò_170);}.cls-95{fill:url(#Áåçûìÿííûé_ãðàäèåíò_170-2);}.cls-96{fill:url(#Áåçûìÿííûé_ãðàäèåíò_197);}.cls-97{fill:#ce86c8;}.cls-98{fill:url(#Áåçûìÿííûé_ãðàäèåíò_240-11);}.cls-99{fill:url(#Áåçûìÿííûé_ãðàäèåíò_240-12);}.cls-100{fill:url(#Áåçûìÿííûé_ãðàäèåíò_240-13);}.cls-101{fill:url(#Áåçûìÿííûé_ãðàäèåíò_239-4);}.cls-102{fill:#d1729b;}.cls-103{fill:url(#Áåçûìÿííûé_ãðàäèåíò_229);}.cls-104{fill:url(#Áåçûìÿííûé_ãðàäèåíò_240-14);}.cls-105{fill:url(#Áåçûìÿííûé_ãðàäèåíò_225);}.cls-106{fill:url(#Áåçûìÿííûé_ãðàäèåíò_225-2);}.cls-107{fill:url(#Áåçûìÿííûé_ãðàäèåíò_226);}.cls-108{fill:url(#Áåçûìÿííûé_ãðàäèåíò_225-3);}.cls-109{fill:url(#Áåçûìÿííûé_ãðàäèåíò_225-4);}.cls-110{fill:url(#Áåçûìÿííûé_ãðàäèåíò_225-5);}.cls-111{fill:url(#Áåçûìÿííûé_ãðàäèåíò_14-7);}.cls-112,.cls-128{fill:#fe9dba;}.cls-113{fill:#ffe4db;}.cls-114{fill:#fed2df;}.cls-115{fill:url(#Áåçûìÿííûé_ãðàäèåíò_75-2);}.cls-116{fill:url(#Áåçûìÿííûé_ãðàäèåíò_236);}.cls-117{fill:url(#Áåçûìÿííûé_ãðàäèåíò_236-2);}.cls-118{fill:url(#Áåçûìÿííûé_ãðàäèåíò_236-3);}.cls-119{fill:url(#Áåçûìÿííûé_ãðàäèåíò_236-4);}.cls-120{fill:url(#Áåçûìÿííûé_ãðàäèåíò_242);}.cls-121{fill:url(#Áåçûìÿííûé_ãðàäèåíò_242-2);}.cls-122{fill:#d190bc;}.cls-123{fill:url(#Áåçûìÿííûé_ãðàäèåíò_242-3);}.cls-124{fill:url(#Áåçûìÿííûé_ãðàäèåíò_239-5);}.cls-125{fill:url(#Áåçûìÿííûé_ãðàäèåíò_240-15);}.cls-126{fill:url(#Áåçûìÿííûé_ãðàäèåíò_123-5);}.cls-127{fill:url(#Áåçûìÿííûé_ãðàäèåíò_242-4);}.cls-128{opacity:0.4;}.cls-130{fill:url(#Áåçûìÿííûé_ãðàäèåíò_123-6);}.cls-131{fill:#a59acd;}.cls-132{fill:url(#Áåçûìÿííûé_ãðàäèåíò_14-8);}.cls-133{fill:url(#Áåçûìÿííûé_ãðàäèåíò_311-5);}.cls-134{fill:#fcf8fd;}.cls-135{fill:url(#Áåçûìÿííûé_ãðàäèåíò_318);}.cls-136{fill:#8172b3;}.cls-137{fill:#ff4c8b;}.cls-138{fill:#ff1357;}.cls-139{fill:#eca9ff;}.cls-140{fill:#9fa9ff;}.cls-141{fill:#77f;}</style><linearGradient id="Áåçûìÿííûé_ãðàäèåíò_79" x1="241.07" y1="371.21" x2="241.07" y2="293.06" gradientUnits="userSpaceOnUse"><stop offset="0" stop-color="#ff6686"/><stop offset="1" stop-color="#ff7c89"/></linearGradient><linearGradient id="Áåçûìÿííûé_ãðàäèåíò_290" x1="226.76" y1="221.69" x2="226.76" y2="161.68" gradientUnits="userSpaceOnUse"><stop offset="0" stop-color="#744fd8"/><stop offset="1" stop-color="#3980f7"/></linearGradient><linearGradient id="Áåçûìÿííûé_ãðàäèåíò_26" x1="261.56" y1="159.63" x2="261.56" y2="102.29" gradientUnits="userSpaceOnUse"><stop offset="0.02" stop-color="#ffa67f"/><stop offset="1" stop-color="#ff8b7c"/></linearGradient><linearGradient id="Áåçûìÿííûé_ãðàäèåíò_14" x1="236.57" y1="130.85" x2="236.57" y2="48.63" gradientUnits="userSpaceOnUse"><stop offset="0.02" stop-color="#ffc290"/><stop offset="1" stop-color="#ffb595"/></linearGradient><linearGradient id="Áåçûìÿííûé_ãðàäèåíò_183" x1="231.3" y1="109.11" x2="231.3" y2="83.4" gradientUnits="userSpaceOnUse"><stop offset="0.02" stop-color="#fff"/><stop offset="0.99" stop-color="#ea9dc8"/></linearGradient><linearGradient id="Áåçûìÿííûé_ãðàäèåíò_96" x1="255.14" y1="304.92" x2="255.14" y2="124.94" gradientUnits="userSpaceOnUse"><stop offset="0" stop-color="#744fd8"/><stop offset="1" stop-color="#3996f7"/></linearGradient><linearGradient id="Áåçûìÿííûé_ãðàäèåíò_280" x1="257.3" y1="91.99" x2="251.96" y2="58.24" gradientUnits="userSpaceOnUse"><stop offset="0" stop-color="#ff8167"/><stop offset="0.05" stop-color="#f17c70"/><stop offset="0.33" stop-color="#a35ea4"/><stop offset="0.46" stop-color="#8453b8"/><stop offset="0.65" stop-color="#6a4db2"/><stop offset="0.86" stop-color="#5448ad"/><stop offset="1" stop-color="#4c46ab"/></linearGradient><linearGradient id="Áåçûìÿííûé_ãðàäèåíò_26-2" x1="203.24" y1="247.73" x2="203.24" y2="128.9" xlink:href="#Áåçûìÿííûé_ãðàäèåíò_26"/><linearGradient id="Áåçûìÿííûé_ãðàäèåíò_257" x1="238.24" y1="66.85" x2="234.5" y2="43.23" gradientUnits="userSpaceOnUse"><stop offset="0" stop-color="#3e2987"/><stop offset="0.57" stop-color="#2c2f90"/><stop offset="1" stop-color="#243294"/></linearGradient><linearGradient id="Áåçûìÿííûé_ãðàäèåíò_288" x1="214.86" y1="92.87" x2="214.08" y2="87.98" gradientUnits="userSpaceOnUse"><stop offset="0" stop-color="#8453b8"/><stop offset="0.23" stop-color="#7755ba"/><stop offset="0.7" stop-color="#6157bc"/><stop offset="1" stop-color="#5958bd"/></linearGradient><linearGradient id="Áåçûìÿííûé_ãðàäèåíò_288-2" x1="225.88" y1="83.21" x2="245.82" y2="83.21" xlink:href="#Áåçûìÿííûé_ãðàäèåíò_288"/><linearGradient id="Áåçûìÿííûé_ãðàäèåíò_290-2" x1="281.71" y1="258.07" x2="281.71" y2="169.97" xlink:href="#Áåçûìÿííûé_ãðàäèåíò_290"/><linearGradient id="Áåçûìÿííûé_ãðàäèåíò_295" x1="230.98" y1="106.63" x2="234.14" y2="106.63" gradientUnits="userSpaceOnUse"><stop offset="0.02" stop-color="#fff"/><stop offset="0.99" stop-color="#f4868b"/></linearGradient><linearGradient id="Áåçûìÿííûé_ãðàäèåíò_52" x1="234.07" y1="118.1" x2="244.4" y2="118.1" gradientUnits="userSpaceOnUse"><stop offset="0" stop-color="#cf6074"/><stop offset="1" stop-color="#e04a7f"/></linearGradient><linearGradient id="Áåçûìÿííûé_ãðàäèåíò_123" x1="249.32" y1="48.21" x2="258.32" y2="48.21" gradientUnits="userSpaceOnUse"><stop offset="0" stop-color="#c9b6e9"/><stop offset="1" stop-color="#d5bdea"/></linearGradient><linearGradient id="Áåçûìÿííûé_ãðàäèåíò_75" x1="257.63" y1="50.78" x2="276.83" y2="50.78" gradientUnits="userSpaceOnUse"><stop offset="0" stop-color="#8b8be0"/><stop offset="1" stop-color="#a177b7"/></linearGradient><linearGradient id="Áåçûìÿííûé_ãðàäèåíò_240" x1="210.47" y1="60.01" x2="255.29" y2="60.01" gradientUnits="userSpaceOnUse"><stop offset="0.01" stop-color="#c2798b"/><stop offset="0.98" stop-color="#fff"/></linearGradient><linearGradient id="Áåçûìÿííûé_ãðàäèåíò_240-2" x1="209.82" y1="57.88" x2="252.82" y2="57.88" xlink:href="#Áåçûìÿííûé_ãðàäèåíò_240"/><linearGradient id="Áåçûìÿííûé_ãðàäèåíò_301" x1="267.79" y1="220.36" x2="267.79" y2="172.94" gradientUnits="userSpaceOnUse"><stop offset="0.01" stop-color="#d097c4"/><stop offset="0.13" stop-color="#d9abcf"/><stop offset="0.38" stop-color="#e9cfe4"/><stop offset="0.61" stop-color="#f5e9f3"/><stop offset="0.82" stop-color="#fcf9fc"/><stop offset="0.98" stop-color="#fff"/></linearGradient><linearGradient id="Áåçûìÿííûé_ãðàäèåíò_298" x1="290.82" y1="216.03" x2="303.75" y2="216.03" gradientUnits="userSpaceOnUse"><stop offset="0.01" stop-color="#d097c4"/><stop offset="0.98" stop-color="#fff"/></linearGradient><linearGradient id="Áåçûìÿííûé_ãðàäèåíò_299" x1="290.56" y1="205.63" x2="290.56" y2="177.1" gradientUnits="userSpaceOnUse"><stop offset="0.02" stop-color="#fff"/><stop offset="0.99" stop-color="#d097c4"/></linearGradient><linearGradient id="Áåçûìÿííûé_ãðàäèåíò_298-2" x1="218.92" y1="191.19" x2="234.92" y2="191.19" xlink:href="#Áåçûìÿííûé_ãðàäèåíò_298"/><linearGradient id="Áåçûìÿííûé_ãðàäèåíò_298-3" x1="234.24" y1="240.03" x2="234.24" y2="203.26" xlink:href="#Áåçûìÿííûé_ãðàäèåíò_298"/><linearGradient id="Áåçûìÿííûé_ãðàäèåíò_298-4" x1="247.69" y1="251.62" x2="247.69" y2="203.57" xlink:href="#Áåçûìÿííûé_ãðàäèåíò_298"/><linearGradient id="Áåçûìÿííûé_ãðàäèåíò_239" x1="273.63" y1="241.17" x2="273.63" y2="224.93" gradientUnits="userSpaceOnUse"><stop offset="0.02" stop-color="#fff"/><stop offset="0.99" stop-color="#c2798b"/></linearGradient><linearGradient id="Áåçûìÿííûé_ãðàäèåíò_240-3" x1="275.45" y1="222.43" x2="275.45" y2="206.21" xlink:href="#Áåçûìÿííûé_ãðàäèåíò_240"/><linearGradient id="Áåçûìÿííûé_ãðàäèåíò_240-4" x1="260.8" y1="174.32" x2="260.8" y2="135.92" xlink:href="#Áåçûìÿííûé_ãðàäèåíò_240"/><linearGradient id="Áåçûìÿííûé_ãðàäèåíò_307" x1="258.98" y1="326.65" x2="258.98" y2="296.21" gradientUnits="userSpaceOnUse"><stop offset="0.01" stop-color="#e092a4"/><stop offset="0.98" stop-color="#fff"/></linearGradient><linearGradient id="Áåçûìÿííûé_ãðàäèåíò_239-2" x1="246.48" y1="313.37" x2="266.19" y2="313.37" xlink:href="#Áåçûìÿííûé_ãðàäèåíò_239"/><linearGradient id="Áåçûìÿííûé_ãðàäèåíò_240-5" x1="267.98" y1="342.29" x2="269.41" y2="342.29" xlink:href="#Áåçûìÿííûé_ãðàäèåíò_240"/><linearGradient id="Áåçûìÿííûé_ãðàäèåíò_5" x1="223.24" y1="371.21" x2="223.24" y2="295.26" gradientUnits="userSpaceOnUse"><stop offset="0.01" stop-color="#e092a4"/><stop offset="0.98" stop-color="#ffecdb"/></linearGradient><linearGradient id="Áåçûìÿííûé_ãðàäèåíò_311" x1="203.24" y1="160.2" x2="217.43" y2="160.2" gradientUnits="userSpaceOnUse"><stop offset="0.01" stop-color="#d4797c"/><stop offset="0.98" stop-color="#fff"/></linearGradient><linearGradient id="Áåçûìÿííûé_ãðàäèåíò_311-2" x1="191.55" y1="162.63" x2="191.55" y2="132.06" xlink:href="#Áåçûìÿííûé_ãðàäèåíò_311"/><linearGradient id="Áåçûìÿííûé_ãðàäèåíò_312" x1="251.46" y1="371.21" x2="251.46" y2="313.37" gradientUnits="userSpaceOnUse"><stop offset="0.02" stop-color="#fff"/><stop offset="0.99" stop-color="#e092a4"/></linearGradient><linearGradient id="Áåçûìÿííûé_ãðàäèåíò_240-6" x1="255.74" y1="43.99" x2="279.17" y2="43.99" xlink:href="#Áåçûìÿííûé_ãðàäèåíò_240"/><linearGradient id="Áåçûìÿííûé_ãðàäèåíò_240-7" x1="252.84" y1="42.39" x2="265.08" y2="42.39" xlink:href="#Áåçûìÿííûé_ãðàäèåíò_240"/><linearGradient id="Áåçûìÿííûé_ãðàäèåíò_240-8" x1="228.77" y1="83.22" x2="235.67" y2="83.22" xlink:href="#Áåçûìÿííûé_ãðàäèåíò_240"/><linearGradient id="Áåçûìÿííûé_ãðàäèåíò_240-9" x1="229.81" y1="83.07" x2="239.76" y2="83.07" xlink:href="#Áåçûìÿííûé_ãðàäèåíò_240"/><linearGradient id="Áåçûìÿííûé_ãðàäèåíò_240-10" x1="209.56" y1="90.4" x2="219.45" y2="90.4" xlink:href="#Áåçûìÿííûé_ãðàäèåíò_240"/><linearGradient id="Áåçûìÿííûé_ãðàäèåíò_257-2" x1="260.22" y1="44.18" x2="258.69" y2="34.54" xlink:href="#Áåçûìÿííûé_ãðàäèåíò_257"/><linearGradient id="Áåçûìÿííûé_ãðàäèåíò_257-3" x1="250.72" y1="65.44" x2="248.59" y2="51.98" xlink:href="#Áåçûìÿííûé_ãðàäèåíò_257"/><linearGradient id="Áåçûìÿííûé_ãðàäèåíò_298-5" x1="208.76" y1="275.44" x2="261.13" y2="275.44" xlink:href="#Áåçûìÿííûé_ãðàäèåíò_298"/><linearGradient id="Áåçûìÿííûé_ãðàäèåíò_159" x1="248.88" y1="78.28" x2="290.88" y2="78.28" gradientUnits="userSpaceOnUse"><stop offset="0" stop-color="#301361"/><stop offset="1" stop-color="#482c6a"/></linearGradient><linearGradient id="Áåçûìÿííûé_ãðàäèåíò_123-2" x1="253.79" y1="80.71" x2="262.28" y2="80.71" xlink:href="#Áåçûìÿííûé_ãðàäèåíò_123"/><linearGradient id="Áåçûìÿííûé_ãðàäèåíò_123-3" x1="285.48" y1="73.27" x2="288.54" y2="73.27" xlink:href="#Áåçûìÿííûé_ãðàäèåíò_123"/><linearGradient id="Áåçûìÿííûé_ãðàäèåíò_14-2" x1="268.45" y1="100.28" x2="268.45" y2="76.67" xlink:href="#Áåçûìÿííûé_ãðàäèåíò_14"/><linearGradient id="Áåçûìÿííûé_ãðàäèåíò_200" x1="268.31" y1="94.23" x2="268.31" y2="83.17" gradientUnits="userSpaceOnUse"><stop offset="0.02" stop-color="#fff"/><stop offset="0.99" stop-color="#f29dc8"/></linearGradient><linearGradient id="Áåçûìÿííûé_ãðàäèåíò_183-2" x1="256.87" y1="122.59" x2="256.87" y2="90.19" xlink:href="#Áåçûìÿííûé_ãðàäèåíò_183"/><linearGradient id="Áåçûìÿííûé_ãðàäèåíò_183-3" x1="227.47" y1="128.38" x2="227.47" y2="111.36" xlink:href="#Áåçûìÿííûé_ãðàäèåíò_183"/><linearGradient id="Áåçûìÿííûé_ãðàäèåíò_311-3" x1="194.16" y1="163.57" x2="194.16" y2="141.01" xlink:href="#Áåçûìÿííûé_ãðàäèåíò_311"/><linearGradient id="Áåçûìÿííûé_ãðàäèåíò_311-4" x1="215.2" y1="247.74" x2="215.2" y2="242.81" xlink:href="#Áåçûìÿííûé_ãðàäèåíò_311"/><linearGradient id="Áåçûìÿííûé_ãðàäèåíò_11" x1="206.52" y1="335.46" x2="215.2" y2="335.46" gradientUnits="userSpaceOnUse"><stop offset="0.01" stop-color="#e092a4"/><stop offset="0.05" stop-color="#e29aab"/><stop offset="0.23" stop-color="#edbec9"/><stop offset="0.42" stop-color="#f5dbe1"/><stop offset="0.61" stop-color="#faeff2"/><stop offset="0.8" stop-color="#fefbfc"/><stop offset="0.98" stop-color="#fff"/></linearGradient><linearGradient id="Áåçûìÿííûé_ãðàäèåíò_50" x1="103.6" y1="205.25" x2="103.6" y2="85.56" gradientUnits="userSpaceOnUse"><stop offset="0" stop-color="#b30b63"/><stop offset="1" stop-color="#95004c"/></linearGradient><linearGradient id="Áåçûìÿííûé_ãðàäèåíò_239-3" x1="128.47" y1="170.56" x2="128.47" y2="125.94" xlink:href="#Áåçûìÿííûé_ãðàäèåíò_239"/><linearGradient id="Áåçûìÿííûé_ãðàäèåíò_95" x1="149.28" y1="262.55" x2="149.28" y2="205.22" gradientUnits="userSpaceOnUse"><stop offset="0" stop-color="#d61a6a"/><stop offset="1" stop-color="#c3065b"/></linearGradient><linearGradient id="Áåçûìÿííûé_ãðàäèåíò_143" x1="143.18" y1="262.48" x2="143.18" y2="170.02" gradientUnits="userSpaceOnUse"><stop offset="0" stop-color="#ff5579"/><stop offset="1" stop-color="#e75979"/></linearGradient><linearGradient id="Áåçûìÿííûé_ãðàäèåíò_133" x1="179.54" y1="162.63" x2="179.54" y2="159.63" gradientUnits="userSpaceOnUse"><stop offset="0" stop-color="#d8caef"/><stop offset="1" stop-color="#eadef4"/></linearGradient><linearGradient id="Áåçûìÿííûé_ãðàäèåíò_79-2" x1="104.47" y1="260.4" x2="104.47" y2="152.68" xlink:href="#Áåçûìÿííûé_ãðàäèåíò_79"/><linearGradient id="Áåçûìÿííûé_ãðàäèåíò_26-3" x1="144.57" y1="194.08" x2="144.57" y2="171.55" xlink:href="#Áåçûìÿííûé_ãðàäèåíò_26"/><linearGradient id="Áåçûìÿííûé_ãðàäèåíò_14-3" x1="127.7" y1="141.98" x2="127.7" y2="70.17" xlink:href="#Áåçûìÿííûé_ãðàäèåíò_14"/><linearGradient id="Áåçûìÿííûé_ãðàäèåíò_111" x1="117.85" y1="371.21" x2="117.85" y2="230.74" gradientUnits="userSpaceOnUse"><stop offset="0" stop-color="#7e8eff"/><stop offset="1" stop-color="#7096ff"/></linearGradient><linearGradient id="Áåçûìÿííûé_ãðàäèåíò_95-2" x1="82.59" y1="263.96" x2="82.59" y2="209.45" xlink:href="#Áåçûìÿííûé_ãðàäèåíò_95"/><linearGradient id="Áåçûìÿííûé_ãðàäèåíò_26-4" x1="111.8" y1="167.49" x2="111.8" y2="122.17" xlink:href="#Áåçûìÿííûé_ãðàäèåíò_26"/><linearGradient id="Áåçûìÿííûé_ãðàäèåíò_159-2" x1="138.53" y1="191.11" x2="138.53" y2="154.02" xlink:href="#Áåçûìÿííûé_ãðàäèåíò_159"/><linearGradient id="Áåçûìÿííûé_ãðàäèåíò_54" x1="104.03" y1="211.51" x2="104.03" y2="61.09" gradientUnits="userSpaceOnUse"><stop offset="0" stop-color="#c50b79"/><stop offset="1" stop-color="#e51160"/></linearGradient><linearGradient id="Áåçûìÿííûé_ãðàäèåíò_14-4" x1="101.1" y1="119.88" x2="101.1" y2="99.28" xlink:href="#Áåçûìÿííûé_ãðàäèåíò_14"/><linearGradient id="Áåçûìÿííûé_ãðàäèåíò_200-2" x1="100.48" y1="117.62" x2="100.48" y2="103.45" xlink:href="#Áåçûìÿííûé_ãðàäèåíò_200"/><linearGradient id="Áåçûìÿííûé_ãðàäèåíò_54-2" x1="95.17" y1="182.88" x2="95.17" y2="93.34" xlink:href="#Áåçûìÿííûé_ãðàäèåíò_54"/><linearGradient id="Áåçûìÿííûé_ãðàäèåíò_149" x1="158.46" y1="245.68" x2="158.46" y2="192.75" gradientUnits="userSpaceOnUse"><stop offset="0.02" stop-color="#ff8d90"/><stop offset="1" stop-color="#ffa684"/></linearGradient><linearGradient id="Áåçûìÿííûé_ãðàäèåíò_248" x1="146.33" y1="231.22" x2="146.33" y2="161.68" gradientUnits="userSpaceOnUse"><stop offset="0" stop-color="#a586c9"/><stop offset="1" stop-color="#b1a4d3"/></linearGradient><linearGradient id="Áåçûìÿííûé_ãðàäèåíò_123-4" x1="167.74" y1="231.78" x2="167.74" y2="161" xlink:href="#Áåçûìÿííûé_ãðàäèåíò_123"/><linearGradient id="Áåçûìÿííûé_ãðàäèåíò_14-5" x1="188.51" y1="194.89" x2="188.51" y2="173.65" xlink:href="#Áåçûìÿííûé_ãðàäèåíò_14"/><linearGradient id="Áåçûìÿííûé_ãðàäèåíò_14-6" x1="184.89" y1="199.14" x2="184.89" y2="193.64" xlink:href="#Áåçûìÿííûé_ãðàäèåíò_14"/><linearGradient id="Áåçûìÿííûé_ãðàäèåíò_183-4" x1="132.36" y1="124.94" x2="143.25" y2="124.94" xlink:href="#Áåçûìÿííûé_ãðàäèåíò_183"/><linearGradient id="Áåçûìÿííûé_ãðàäèåíò_183-5" x1="132.9" y1="126.63" x2="132.9" y2="122.59" xlink:href="#Áåçûìÿííûé_ãðàäèåíò_183"/><linearGradient id="Áåçûìÿííûé_ãðàäèåíò_188" x1="132.35" y1="124.19" x2="132.35" y2="101.13" gradientUnits="userSpaceOnUse"><stop offset="0.02" stop-color="#fff"/><stop offset="0.99" stop-color="#f7839a"/></linearGradient><linearGradient id="Áåçûìÿííûé_ãðàäèåíò_170" x1="147.22" y1="105.69" x2="147.22" y2="98.89" gradientUnits="userSpaceOnUse"><stop offset="0" stop-color="#ff8170"/><stop offset="1" stop-color="#fe467c"/></linearGradient><linearGradient id="Áåçûìÿííûé_ãðàäèåíò_170-2" x1="127.6" y1="102.78" x2="127.6" y2="96.87" xlink:href="#Áåçûìÿííûé_ãðàäèåíò_170"/><linearGradient id="Áåçûìÿííûé_ãðàäèåíò_197" x1="133.76" y1="136.35" x2="133.76" y2="127.78" gradientUnits="userSpaceOnUse"><stop offset="0" stop-color="#ea1a8f"/><stop offset="1" stop-color="#d3004c"/></linearGradient><linearGradient id="Áåçûìÿííûé_ãðàäèåíò_240-11" x1="95.71" y1="93.49" x2="121.77" y2="93.49" xlink:href="#Áåçûìÿííûé_ãðàäèåíò_240"/><linearGradient id="Áåçûìÿííûé_ãðàäèåíò_240-12" x1="116.04" y1="99.28" x2="116.04" y2="67.54" xlink:href="#Áåçûìÿííûé_ãðàäèåíò_240"/><linearGradient id="Áåçûìÿííûé_ãðàäèåíò_240-13" x1="113.23" y1="99.95" x2="113.23" y2="63.26" xlink:href="#Áåçûìÿííûé_ãðàäèåíò_240"/><linearGradient id="Áåçûìÿííûé_ãðàäèåíò_239-4" x1="89.97" y1="167.49" x2="89.97" y2="104.93" xlink:href="#Áåçûìÿííûé_ãðàäèåíò_239"/><linearGradient id="Áåçûìÿííûé_ãðàäèåíò_229" x1="120.29" y1="199.7" x2="120.29" y2="172.94" gradientUnits="userSpaceOnUse"><stop offset="0.01" stop-color="#e38b8b"/><stop offset="0.98" stop-color="#fff"/></linearGradient><linearGradient id="Áåçûìÿííûé_ãðàäèåíò_240-14" x1="59.41" y1="190.2" x2="71.27" y2="190.2" xlink:href="#Áåçûìÿííûé_ãðàäèåíò_240"/><linearGradient id="Áåçûìÿííûé_ãðàäèåíò_225" x1="94.91" y1="210.54" x2="94.91" y2="184.67" gradientUnits="userSpaceOnUse"><stop offset="0" stop-color="#e59db0"/><stop offset="0.98" stop-color="#fff"/></linearGradient><linearGradient id="Áåçûìÿííûé_ãðàäèåíò_225-2" x1="101.13" y1="209.45" x2="101.13" y2="194.08" xlink:href="#Áåçûìÿííûé_ãðàäèåíò_225"/><linearGradient id="Áåçûìÿííûé_ãðàäèåíò_226" x1="71.9" y1="208.05" x2="95.17" y2="208.05" gradientUnits="userSpaceOnUse"><stop offset="0.02" stop-color="#fff"/><stop offset="1" stop-color="#e59db0"/></linearGradient><linearGradient id="Áåçûìÿííûé_ãðàäèåíò_225-3" x1="123.62" y1="237.97" x2="123.62" y2="216.75" xlink:href="#Áåçûìÿííûé_ãðàäèåíò_225"/><linearGradient id="Áåçûìÿííûé_ãðàäèåíò_225-4" x1="109.91" y1="233.88" x2="109.91" y2="214.61" xlink:href="#Áåçûìÿííûé_ãðàäèåíò_225"/><linearGradient id="Áåçûìÿííûé_ãðàäèåíò_225-5" x1="126.5" y1="240.03" x2="126.5" y2="224.93" xlink:href="#Áåçûìÿííûé_ãðàäèåíò_225"/><linearGradient id="Áåçûìÿííûé_ãðàäèåíò_14-7" x1="108.39" y1="247.69" x2="108.39" y2="163.57" xlink:href="#Áåçûìÿííûé_ãðàäèåíò_14"/><linearGradient id="Áåçûìÿííûé_ãðàäèåíò_75-2" x1="92.46" y1="240.16" x2="130.51" y2="240.16" xlink:href="#Áåçûìÿííûé_ãðàäèåíò_75"/><linearGradient id="Áåçûìÿííûé_ãðàäèåíò_236" x1="76.12" y1="371.21" x2="76.12" y2="300.97" gradientUnits="userSpaceOnUse"><stop offset="0.01" stop-color="#c2c0e1"/><stop offset="0.98" stop-color="#fff"/></linearGradient><linearGradient id="Áåçûìÿííûé_ãðàäèåíò_236-2" x1="112.37" y1="371.21" x2="112.37" y2="254.14" xlink:href="#Áåçûìÿííûé_ãðàäèåíò_236"/><linearGradient id="Áåçûìÿííûé_ãðàäèåíò_236-3" x1="137.36" y1="371.21" x2="137.36" y2="247.69" xlink:href="#Áåçûìÿííûé_ãðàäèåíò_236"/><linearGradient id="Áåçûìÿííûé_ãðàäèåíò_236-4" x1="143.93" y1="371.21" x2="143.93" y2="273.85" xlink:href="#Áåçûìÿííûé_ãðàäèåíò_236"/><linearGradient id="Áåçûìÿííûé_ãðàäèåíò_242" x1="100.15" y1="305.68" x2="100.15" y2="237.97" gradientUnits="userSpaceOnUse"><stop offset="0.02" stop-color="#fff"/><stop offset="0.99" stop-color="#c2c0e1"/></linearGradient><linearGradient id="Áåçûìÿííûé_ãðàäèåíò_242-2" x1="110.33" y1="306.64" x2="110.33" y2="235.54" gradientTransform="translate(-33.38 18.39) rotate(-7.31)" xlink:href="#Áåçûìÿííûé_ãðàäèåíò_242"/><linearGradient id="Áåçûìÿííûé_ãðàäèåíò_242-3" x1="127.75" y1="314.23" x2="127.75" y2="245.52" xlink:href="#Áåçûìÿííûé_ãðàäèåíò_242"/><linearGradient id="Áåçûìÿííûé_ãðàäèåíò_239-5" x1="110.14" y1="79.04" x2="137.8" y2="79.04" xlink:href="#Áåçûìÿííûé_ãðàäèåíò_239"/><linearGradient id="Áåçûìÿííûé_ãðàäèåíò_240-15" x1="95.71" y1="93.25" x2="110.14" y2="93.25" xlink:href="#Áåçûìÿííûé_ãðàäèåíò_240"/><linearGradient id="Áåçûìÿííûé_ãðàäèåíò_123-5" x1="130.53" y1="160.41" x2="130.53" y2="153.94" xlink:href="#Áåçûìÿííûé_ãðàäèåíò_123"/><linearGradient id="Áåçûìÿííûé_ãðàäèåíò_242-4" x1="79.73" y1="371.21" x2="79.73" y2="256.7" xlink:href="#Áåçûìÿííûé_ãðàäèåíò_242"/><linearGradient id="Áåçûìÿííûé_ãðàäèåíò_123-6" x1="173.2" y1="326.65" x2="173.2" y2="260.97" xlink:href="#Áåçûìÿííûé_ãðàäèåíò_123"/><linearGradient id="Áåçûìÿííûé_ãðàäèåíò_14-8" x1="233.93" y1="286.1" x2="233.93" y2="230.74" xlink:href="#Áåçûìÿííûé_ãðàäèåíò_14"/><linearGradient id="Áåçûìÿííûé_ãðàäèåíò_311-5" x1="218.29" y1="247.99" x2="249.25" y2="247.99" xlink:href="#Áåçûìÿííûé_ãðàäèåíò_311"/><linearGradient id="Áåçûìÿííûé_ãðàäèåíò_318" x1="196.08" y1="255.26" x2="207.39" y2="255.26" gradientUnits="userSpaceOnUse"><stop offset="0.02" stop-color="#fff"/><stop offset="0.99" stop-color="#ffbdcc"/></linearGradient></defs><g class="cls-1"><g id="Capa_2" data-name="Capa 2"><g id="illustration"><path class="cls-2" d="M151.31,18.44C74,37.27,61.35,96.13,49.6,149.57S-6.13,253,82.56,274.2s220.55-7.65,242.53-92.29-62.28-76.24-122.28-102.8S185.56,10.1,151.31,18.44Z"/><path class="cls-2" d="M182.19,47.7c-9.75,5.19-15.19-23.92-3.84-35.33S209.57-4.86,217.5,5.09,207.18,30.86,197,36.59,185.83,45.77,182.19,47.7Z"/><path class="cls-2" d="M65,73.42c.28-20.31-45.58-2-59.19,35.56s-1.2,64.93,17.32,66.17S44.18,155.32,49.82,126,64.8,84.82,65,73.42Z"/><path class="cls-2" d="M291.68,295c7.33-13.73,19-18.2,27.12-16.29s.19,27.89-11.23,28.91S287.21,303.4,291.68,295Z"/><path class="cls-3" d="M207.26,298.61s-1.89,43.82,1.14,72.6h67.07l-8.59-66.29-1.26-2.4S243.45,284.14,207.26,298.61Z"/><path class="cls-4" d="M226.34,161.68c-2.78,3.79-3.23,28.3-8.76,35.94,0,0,7.63,18.76,9.45,23.18s7.52-9,7.52-9L235.94,180l-1.14-13.49Z"/><path class="cls-5" d="M264.23,102.29s6.45,18.2,11.88,28.56c0,0-13,6.77-26.91,28.78,0,0-2.53-7.57-2.15-11.38s5.69-12.33,5.69-12.33l-1.39-7.79Z"/><path class="cls-6" d="M210.8,60.12c-4.58,7.36,0,26.91,0,26.91l-1.24,2.12s5.38,6.38,7.93,12,2.66,7.56,4,10.23,7,9.25,9.48,12.83,3.5,6.49,4,6.64,11.75-.63,16.43-2.7,12-17.91,12.88-25.84-2.15-36-4.8-43.05-6.19-10.61-13.14-10.61S215.6,52.42,210.8,60.12Z"/><path class="cls-7" d="M218.43,90.19a55.29,55.29,0,0,0,10.34-3.64s11-4.92,17-2.46c0,0,2.65,5.44,4.45,9.16,0,0-6.44,5.9-12.22,6.8s-9.57-6.21-9.57-6.21-3.94-.41-5.47,2.31l1,8.62s-1.58,3.4-3.49,4.34a94.51,94.51,0,0,0-3.48-8.88c-1.19-2.18-4.73-7.52-4.73-7.52Z"/><path class="cls-8" d="M273.71,125.94l2.4-1a32.89,32.89,0,0,0,2.52,7.12c2,4.36,24.38,32.36,27.66,47.91,0,0-24.75,56.58-28.54,74.85s-5.81,39.75-5.81,39.75l-3.42,1.51v8.84h-1.64l-1.26-2.4s-19.83-17.3-58.36-3.91v1.77l-2.4-.76.94-6.25L204,292.29s7-31.86,16.15-47.6,7.22-42.41,4.94-53.23c0,0,1.77-15.92,4.3-21.84l-3-7.94S242.49,145.07,247,141.5s4.4-6.82,4.4-6.82l1.23-.28.1,1.52s-5.69,9.22-5.69,12.33S249.14,159,249.14,159s14.51-23.75,26-30.13Z"/><path class="cls-9" d="M285.23,255.85a39.66,39.66,0,0,1-23.31-24.07v-3.31S285.7,233.87,285.23,255.85Z"/><path class="cls-10" d="M245.16,61.09s2.32,11,1.85,16.85c0,0,4.21-.26,6,1.89s4.55,11.75,4.55,11.75h2.4s.6-5.49,3.47-8.76c0,0-2-22.9-4.93-25.61Z"/><path class="cls-11" d="M218.29,247.2a9.36,9.36,0,0,1-4.11.49s-9.31-11.16-9.72-31.44-.59-26.18-2.49-33.74a11.12,11.12,0,0,1-7.15-1.67c-3.85-2.29-8.4-20.51-8.4-20.51L183.18,154a11.22,11.22,0,0,1-3.05-12s-2.17-6.13,1.17-9.35c0,0,.32-3.47,2.66-3.73l3.22,3.16,1.58-1.1s10,7.8,11.74,9.63c1.42,1.47,5.41,13.11,7.31,17.84a7.51,7.51,0,0,0,.95,2s3.56-1.76,3.59-6.94a8.82,8.82,0,0,1-1.2-3.63v0a10.58,10.58,0,0,1,0-2.39c.42-3.66,3.32-6.82,4.59-6.88a4.88,4.88,0,0,1,2.52.75,64.08,64.08,0,0,0-2.21,11.4h0a15.24,15.24,0,0,0,0,1.79c.21,3,1,7.43,1.39,10.72a22.37,22.37,0,0,1,.32,3.89c-.19,1.9-6.65,7.39-6.61,9.18s8.25,26.47,14.19,36.58S220,246.44,218.29,247.2Z"/><path class="cls-12" d="M208.78,71.52S202.59,63.58,193,61.09c0,0,11.84-.11,15.77,8.11,0,0-1-7.56,0-10.59s20.48-11.75,40.56-10.8c0,0,9.23-13.2,22.87-8.28s4.42,16.3,1,16.93S263.79,51,254.88,50.9c0,0,4.74,1.71,5.12,4.55s-15.6,6.66-30.66,9.6l2.17-2.18s-6.72,2.08-12.79,4A79.64,79.64,0,0,1,210,69.2l-.19-2.07Z"/><path class="cls-13" d="M209.56,89.15s4.71-1.74,8.22.72l-1.14-2.29a23.28,23.28,0,0,1,2.81,4.56s-4.26.13-7.12.57A10.22,10.22,0,0,1,209.56,89.15Z"/><path class="cls-14" d="M228.77,86.55s9.75-3.69,17-2.46c0,0-6.35-8.56-18.79-1.32l1.5,3.22a7.77,7.77,0,0,1-2.65-3.46S225.78,84.9,228.77,86.55Z"/><path class="cls-15" d="M306.29,180c.63,5.33-10.61,29.72-8.84,60.41l1.26,3.55s-5,11.15-13.2,14.14l-7.3-4.45,1.9-.33,5.12,2.56s-2.43-19-21.25-25.11l-2.85,2.19s-3.85-4.08-4-6.83l2.59-1.17.38-2.74s4.42-.38,5.31-1.9,5.33-32.84,10.74-40.32C290.25,160.41,305.66,174.65,306.29,180Z"/><path class="cls-16" d="M234,95.37s1.25,2.7,3.58,3.07,7.85-4.53,7.85-4.53S239,93.34,234,95.37Z"/><path class="cls-16" d="M217.62,100.61s2.15,4.66,4.7,4.12c2-.43.76-4.45.76-4.45A10.12,10.12,0,0,0,217.62,100.61Z"/><path class="cls-17" d="M217.91,101.17l-2.83-.44a9.09,9.09,0,0,1,8-.45,11.5,11.5,0,0,0-5.46.33Z"/><path class="cls-17" d="M234.5,96.15h-2.18S235,92,245.47,93.91a23.07,23.07,0,0,0-11.11,1.77Z"/><path class="cls-18" d="M219.08,100.23a6.73,6.73,0,0,1,3.93,4.09s-1.36,1.27-3.11-.48a10.06,10.06,0,0,1-2.28-3.23Z"/><path class="cls-18" d="M236.72,94.78a5.12,5.12,0,0,1,3.59,2.87,3.57,3.57,0,0,1-3.25.65,7,7,0,0,1-2.92-2.54A14.29,14.29,0,0,1,236.72,94.78Z"/><path class="cls-19" d="M233.64,95s-.7-3.66.67-4.84,7.44-.7,10.85,2.1c0,0-6.26-3.62-10.45-1.94-1.79.72-.67,4.48-.67,4.48Z"/><path class="cls-19" d="M217,100.05s-1.5-4.06-.61-5.07,4.73.13,6.72,3.16c0,0-3.92-4.33-6.28-2.93C216.11,95.61,217,100.05,217,100.05Z"/><path class="cls-20" d="M238.5,96.15a1.39,1.39,0,0,1,1.61-.73Z"/><path class="cls-20" d="M221,102.19a1,1,0,0,1,1.47-.67Z"/><path class="cls-21" d="M226.49,113.55a24.32,24.32,0,0,0,3.76-1.76s2.54-1.46,4.67-2.45a4.85,4.85,0,0,0,0-5.26,7.14,7.14,0,0,1,.78,6.82l-2.95,3.65-2.28.85Z"/><path class="cls-22" d="M234.14,103.51s-4.71,1-2.63,6.23C231.51,109.74,230.9,105.5,234.14,103.51Z"/><path class="cls-23" d="M234,120.75s-3.47-3.23-1.1-4.83,6.63-1.8,8.9-2.18,2.51-1.23,3-.56-1.05,5.3-6,7.57S234,120.75,234,120.75Z"/><path class="cls-16" d="M232.32,117.35s.9.56,3-.2a8.71,8.71,0,0,0,3.6-3S232.94,114.83,232.32,117.35Z"/><path class="cls-24" d="M234.74,121.45c-1.22,0-1.08-2.78,3-4.36s6.66-2.34,6.66-2.34S241.68,121.58,234.74,121.45Z"/><path class="cls-21" d="M234.92,130.83s12.66-3.28,16.3-5.89,10.86-14,13-22.65l8.34,21.12S261.94,133,251.85,131l-.5-2.83S242.88,131.06,234.92,130.83Z"/><path class="cls-25" d="M249.32,47.81l2.29-2.64a10.41,10.41,0,0,1,6.71,6.08l-3-.33A20,20,0,0,0,249.32,47.81Z"/><path class="cls-26" d="M257.63,49.91s11.21-6.37,17-3.62S273,56,273,56s-10.23-4.15-13.55-4.7Z"/><path class="cls-27" d="M210.47,69.11s3.71-6.24,21.85-8.7,23-9.49,23-9.49-1.32,5.84-8.81,7.69-21.26,3.09-26.38,5A39,39,0,0,0,210.47,69.11Z"/><path class="cls-28" d="M209.82,67.13s.92-8.78,4.7-11.18,19.52-.44,28-1.38,10.32-5.25,10.32-5.25l-1.35-.69s-2.9,4-10.67,5.11-21.85-.28-26.4,1.77S209.82,67.13,209.82,67.13Z"/><path class="cls-21" d="M251.47,48.63s-1.29,3.91-11.71,5.24c0,0,10.88,1.41,13.06-4.55Z"/><path class="cls-21" d="M252.74,135.92s-5.56,11-3.6,23.11c0,0-4.72-6.79-3.86-11.69s6-8.4,6.13-12.66l1.23-.28Z"/><path class="cls-29" d="M265.37,220.29c.86,1.66,4.07-26.83,9.45-38.08,0,0-11,12.69-10,34,0,0-5.3-24,3.41-43.31C268.27,172.94,253.49,197.55,265.37,220.29Z"/><path class="cls-30" d="M297.45,240.38s-6.44-8.4-6.63-22,12.93-26.64,12.93-26.64A144.67,144.67,0,0,0,297.45,240.38Z"/><path class="cls-31" d="M274.82,205.63s10.38-31,30.34-28.37l1.13,3.75-1.62,7.31S288.83,181.75,274.82,205.63Z"/><path class="cls-32" d="M225.07,191.46s4-18.29,9.85-27.89l-5.55,6.05s-4.68,15.45-6.32,19.29-3.16,3.84-3.16,3.84l-1,2.5s5.61,2.43,7.84,13.29l-.93,4.3-5.31-8.21s2.72,6.4,4.06,8.9a31.93,31.93,0,0,1,2.16,5.28,56.07,56.07,0,0,0,0-14.43C225.79,195.54,225.07,191.46,225.07,191.46Z"/><path class="cls-33" d="M229.24,203.26s8.11,18.11,10,36.77Z"/><path class="cls-34" d="M236.57,203.57A127.33,127.33,0,0,1,258.8,242l-7.58,9.66S243.15,218.67,236.57,203.57Z"/><path class="cls-21" d="M271.94,294.57s-12-7-31.9-8.46A79.57,79.57,0,0,0,204,292.29l1.82,1.08s17.57-7.3,34-6.26a66.55,66.55,0,0,1,28.76,9Z"/><path class="cls-21" d="M268.52,304.92s-9.22-12.88-32.58-12.5-31.08,7.2-31.08,7.2l2.4.76v-.67s11.68-3.65,28.71-2.93a87.43,87.43,0,0,1,30.6,7.2l.41,1.7Z"/><path class="cls-35" d="M259.68,224.93s9.81,1.06,16.26,3.43a22,22,0,0,1,13.27,12.81s-8.3-10.53-13-12.7-18.12-2.81-18.12-2.81Z"/><path class="cls-36" d="M260.75,222.11s11.41.95,17.19-.42,12.22-15.48,12.22-15.48-10,11.73-17.25,14.15S260.75,222.11,260.75,222.11Z"/><path class="cls-37" d="M245.16,174.32s-9.86-12.43-.76-30.54c0,0-8.77,16.73.78,29.16,0,0,17.35-31.34,35.89-37C281.07,135.92,264.86,140.48,245.16,174.32Z"/><path class="cls-21" d="M267.34,211.81l-5.57,10.37a6.25,6.25,0,0,0,3.6-1.89C266.52,218.76,267.34,211.81,267.34,211.81Z"/><path class="cls-21" d="M257.09,226.1s-3.55,9.67-10.27,16.71l14.31-9.88Z"/><path class="cls-21" d="M222.43,265s35.23-4.31,53.42,0l2.36-11.38S246.51,259.36,222.43,265Z"/><path class="cls-21" d="M218.43,199.7s4.87,13.09,4.75,24.54-4.26,22.67-4.26,22.67,8.56-14.37,8.11-23.61-1.24-7.33-3.45-11.79S218.43,199.7,218.43,199.7Z"/><path class="cls-38" d="M250.32,296.21s1.66,13.13,6.08,21.6,11.24,8.84,11.24,8.84v-9.73s-.82-8.7-5.24-9.21S252.77,305.41,250.32,296.21Z"/><path class="cls-39" d="M246.82,294.61s-4.51,29.11,19.37,37.52C266.19,332.13,247.69,326.65,246.82,294.61Z"/><polygon class="cls-40" points="268.52 371.21 267.98 313.37 269.41 371.21 268.52 371.21"/><path class="cls-41" d="M224.5,371.21s-.19-45.44,0-53.4,4.74-22.55,4.74-22.55-6.54,11.68-6.81,20.65c0,0-3.93-6.44-5.19-19.83,0,0-.1,23.45,5.19,46.21l-1.78,28.92Z"/><path class="cls-42" d="M217.43,165.2c-1.37-2.61-3.26-5.69-4.6-5.89-2.35-.35-8.57,6.23-9.59,11.25a23.72,23.72,0,0,1,2.56-8.88c.8-1.39,1.48-2.46,2-3.25a7.51,7.51,0,0,0,.95,2s3.56-1.76,3.59-6.94a8.82,8.82,0,0,1-1.2-3.63c.11.37,1,3.36,2.49,4.1s2.32-1.08,2.4-1.25a15.24,15.24,0,0,0,0,1.79C216.25,157.43,217,161.91,217.43,165.2Z"/><path class="cls-43" d="M203,151.2s-11,3.6-15,11.43l1.32-4.3s-7.58-12.82-9.19-16.35c0,0,7.68,14,9.7,15.19l2.78-2s-4.36-8.09-5.69-10.3-5.49-8.59-5.62-12.19c0,0,2.51,7.92,6.54,12.24l5.35,9.66,4-2-3.55-9s-7.58-7.18-6.44-11.43A14.49,14.49,0,0,0,195,142.73l3.31,9.1Z"/><path class="cls-21" d="M217.75,169.09s-6.79,5.54-10.44,8.63-3.77,4-3.77,4l7.6-3.7a34.62,34.62,0,0,1,3.28-4.35C216.83,170.8,217.78,170.43,217.75,169.09Z"/><path class="cls-21" d="M202.12,260.3a3.33,3.33,0,0,1,.57-.19Z"/><path class="cls-21" d="M207.89,261.79l-2.43-1.39A3.59,3.59,0,0,0,203,260,4.86,4.86,0,0,1,207.89,261.79Z"/><path class="cls-21" d="M222.74,343.2l1.68-11.07-2-16.22s-5.17-8.72-5.15-16.86C217.28,299.05,217.57,328.23,222.74,343.2Z"/><polygon class="cls-21" points="280.04 134.4 275.45 138.4 280.67 135.32 280.04 134.4"/><path class="cls-44" d="M262.4,151.07,285.24,180s14-6.46,19.92-2.71c0,0-1.64-11.21-24.09-41.34C281.07,135.92,273.88,137.06,262.4,151.07Z"/><polygon class="cls-45" points="249.32 371.21 248.96 313.37 253.97 371.21 249.32 371.21"/><path class="cls-46" d="M210,57.21c1.34-.92-4.73,3.86,7,5.09s23.44-5,26.3-4.34-.25,2,4.58-.08c0,0-.56-1.81-3.08-1.59s-19.62,6.11-27.2,5.45-5-6.19-5-6.19Z"/><path class="cls-47" d="M255.74,47.53s17.65-13.05,23.43-1.93c0,0-5-12.8-23.43,1.93Z"/><path class="cls-48" d="M254.28,46.39a17.44,17.44,0,0,1,10.8-8s-5.44-1-12.24,7.17Z"/><path class="cls-49" d="M228.77,86.55s.33-4.92,3.55-6.08l3.35-.58S229.76,81.3,228.77,86.55Z"/><path class="cls-50" d="M229.81,86.19A12.46,12.46,0,0,1,238,79.94l1.8.34S232.52,81.32,229.81,86.19Z"/><path class="cls-51" d="M219.45,92.14a14.48,14.48,0,0,0-7.77-3.48l-2.12.49A24.36,24.36,0,0,1,219.45,92.14Z"/><path class="cls-21" d="M208.46,60S210,63.85,222,63.26s23.12-1.64,23.12-1.64a106.7,106.7,0,0,1-20.09,6.56c-11.56,2.55-16.29,3.34-16.29,3.34S208.15,61.42,208.46,60Z"/><path class="cls-21" d="M259,50.92s6.34-2.81,11.82-1.12,3.69,4.5,3.69,4.5,7.2-8.82-3-8.7-13.86,4.31-13.86,4.31Z"/><path class="cls-52" d="M251.61,45.17s3-8.86,8.94-10.82,7.54,4.2,7.54,4.2l-2.47-.15s-.78-3.71-5.77-2.2-7.46,9.22-7.46,9.22Z"/><path class="cls-53" d="M231.3,64.66s24.34,1.69,34.89-2.2-10.9-11.54-10.9-11.54l2.34,2.1s8.84,2.81,4.77,7S234.78,64,234.78,64Z"/><path class="cls-54" d="M208.76,282.69a131.46,131.46,0,0,0,29.2-2.81c16.19-3.38,23.17-11.72,23.17-11.72S234.62,281.87,208.76,282.69Z"/><path class="cls-21" d="M249.14,159s-7.63,1.67-4,13.91C245.18,172.94,242.61,164.9,249.14,159Z"/><path class="cls-55" d="M251.64,81.84s-2.88,4.36-2.76,5.15,4.93.73,4.93.73l36.13-11.63s3-6.5-1.77-7.26Z"/><path class="cls-21" d="M251.64,81.84s2.8.67,2.17,5.88l15.31-4.93s1.95-4.79-2.78-6.18Z"/><polygon class="cls-56" points="253.79 81.69 254.84 82.55 262.28 80.19 261.3 78.88 253.79 81.69"/><path class="cls-57" d="M286.28,69.51s3.09,1.39,2,7.1L287,77s1.92-4.42-1.53-7.24Z"/><path class="cls-58" d="M261.07,89.15s.95-10,11-12.48a15.88,15.88,0,0,1,4,10.36c-.12,6-5.88,12.36-7.65,13.09s-4.85-1.23-4.85-1.23S259.74,93.64,261.07,89.15Z"/><path class="cls-59" d="M262.4,92.71s4.86-8.9,8.52-9.5,4.8,6.58.64,10.63c0,0,2.34-4.6,1-6.62s-2.4-2.28-2.4-2.28l-1.08.89s2,3.07,1.65,4.31-.38,4-2.43,4.09a1.77,1.77,0,0,1-1.93-2s.76-3.47.25-3.78S262.4,92.71,262.4,92.71Z"/><path class="cls-21" d="M265.08,88.48s1.63-.26,1.68.22-.86,4.43.2,5.14,3.08-1.15,3.27-4.3a3.92,3.92,0,0,0-2.8-4Z"/><polygon class="cls-21" points="254.28 87.58 260.58 88.47 262.28 84.99 254.28 87.58"/><path class="cls-46" d="M226.49,113.55s-3.68-6.13-3.48-17.4a9.07,9.07,0,0,1,5.47-2.31s0,10.12,2.9,17.32Z"/><path class="cls-60" d="M257.09,90.19l-6.22,9.39,2.75,23s6.87-8.52,8.78-14.85-2.46-16.16-2.46-16.16Z"/><path class="cls-61" d="M221.47,111.36s4.75,3.91,7.3,6,4.69,11,4.69,11a32.23,32.23,0,0,0-4.69-7.13A122.48,122.48,0,0,1,221.47,111.36Z"/><path class="cls-62" d="M183.18,154s2.22,1.21,2.7-1.58c0,0,2.24-.26,2.22-5.57l.63-.4s4,2.14,4.89-3l1.33-.76a3.93,3.93,0,0,0,5.86-1.72,64.3,64.3,0,0,1,4.34,10.38s-4-.81-9.6,3.46-7.48,7.56-7.48,7.56l-.78,1.16-.87-3.24A23.66,23.66,0,0,0,183.18,154Z"/><path class="cls-63" d="M211.06,242.81l8.28,2.87-1.05,1.52a11.3,11.3,0,0,1-4.11.49A27.55,27.55,0,0,1,211.06,242.81Z"/><path class="cls-21" d="M267.64,326.65S252,314.78,250.32,296.21C250.32,296.21,252.51,324.38,267.64,326.65Z"/><path class="cls-64" d="M207.26,299.71s-.94,39.76,7.94,71.5h-6.8A499,499,0,0,1,207.26,299.71Z"/><path class="cls-21" d="M226.74,218.81a91.46,91.46,0,0,0-1.67-27.35l-1.68,8.24s3,5.37,3.22,8a11.85,11.85,0,0,1-.78,5.12l-.5,2Z"/><path class="cls-65" d="M142.48,133.89s-3.19,23.75,2.55,62.4l-5.33-3.79-11-5.56s-3.3-5.52-3.55-21.69c0,0-1.25,1.48,3,28.83,0,0-40.29,3-48.13,5.75s-11,5.42-11,5.42-9-19.32-6.44-25.38S72.84,178,80.55,168.38s8.27-66.57,16.61-75.86S140,85.92,140,85.92l3,3.38S143.36,116.71,142.48,133.89Z"/><path class="cls-66" d="M142.14,136.35a44.69,44.69,0,0,0-4.88,4.68c-1.73,2.08-2.57,29.53-2.57,29.53l-1.32-1.47,2.15-26.64s-7,4.55-8.43,7.67-2.9,13.55-2.9,13.55l-1.11-1L126,147.28l-3.75,14.4a22.27,22.27,0,0,1-3.65-5.52c-1.59-3.38-4.09-30.22-4.09-30.22l28,7.95Z"/><path class="cls-67" d="M147.75,262.48c5.49,2.09,16.12-45.79,10.14-55.2s-18.73,15.54-19,30.7A36.4,36.4,0,0,0,147.75,262.48Z"/><path class="cls-68" d="M134.61,170s12.58,11.62,23.28,37.26c0,0-33.07,24.89-10.14,55.2,0,0-12.64-11.92-17.79-33.62S134.61,170,134.61,170Z"/><path class="cls-69" d="M157.89,161.68a187.4,187.4,0,0,1,41.78-1.51l1.51,1.51-41.3.95Z"/><path class="cls-70" d="M103.79,152.68H102A7.71,7.71,0,0,1,99.81,157c-1.89,1.8-12.79,4.74-23,17.24,0,0-17.34,51.44-6.35,86.12,0,0,3.89-38.37,19-49.36l1.48,1.24s1.86,15.13-.33,20.16l1.79,1.05s8-3.6,13.17-2.08S116,237.94,125,240a211.3,211.3,0,0,1,9.35-19.74c4.29-7.45,7.14-13.75,7.14-13.75s2.3-10.63-1.8-19.66A65.09,65.09,0,0,1,134.61,170s-12.53-5.16-14.81-12.38l-1.36-.51Z"/><path class="cls-71" d="M133.47,196.39a15.53,15.53,0,0,1,3.89,8.86c.59,6.18-3,15-3,15l3-5.44,8.77-25.94-2.78-4Z"/><path class="cls-72" d="M141.69,194.08c1.42-1,.94-9.38,2.74-13.26a47.89,47.89,0,0,1,5.53-8.4,3,3,0,0,0-3.22-.7c-2.15.63-5.81,1.77-5.5,8.4a47.15,47.15,0,0,1-2.06,4.55S141.81,189.47,141.69,194.08Z"/><path class="cls-73" d="M141.5,74c7.29,6.59,10.29,11.69,10.8,16.49s-5.37,19.33-5.4,22.86,3,6.57,1.61,11.75S135.84,142,130.07,142c-2.47,0-13.68-7.2-19.36-13.93s-5.88-21.51-5.88-21.51-6.91-24.53,6.64-32S138,70.81,141.5,74Z"/><path class="cls-74" d="M144.62,97.21S146.3,86.74,142.48,85s-5.22-1-5.22-1-3.45,10.86-10.17,12.87-14.71-.46-14.71-.46L124.57,85l16.12-11,6.53,5.59,1.63,13.7Z"/><path class="cls-75" d="M125.92,237.88s2.5,2.05,4.59,7.64h-3.13s17,75.63,38.56,125.69H74s-6.11-76.64-3.58-97.87,20.17-40.9,20.17-40.9,10.28-3.35,16.06-.66S125,240,125,240Z"/><path class="cls-76" d="M105,157.41a16.23,16.23,0,0,1-1.24-4.73l.07-1.61-1.39.7A8.53,8.53,0,0,1,99.81,157c-2.52,2.43-11.56,4.14-23,17.24l-2,6.59a17,17,0,0,1,10.54-3.27s6.62,11.87,14.08,9.09S105,157.41,105,157.41Zm-6.88,24.71c-6.48,1-10.62-5.88-10.62-5.88s6.79,1.93,11.34-.41S104,163.67,104,163.67,104.64,181.14,98.15,182.12Z"/><path class="cls-77" d="M70.44,260.4c.62,8.89,11.88.19,19.46-15.48s5.43-31.83,0-35.24S69.18,242,70.44,260.4Z"/><path class="cls-78" d="M117.66,134.61s-2.12,14.19,2,25.3c0,0,1.13,7.71-4.55,7.58S103.79,155,103.79,155l3.72-32.82S110.06,127.76,117.66,134.61Z"/><path class="cls-79" d="M145,187.83,127.7,158.08s0-4.74,4.42-4l15.75,30.14s1.9,6.12,1.41,6.8S145,187.83,145,187.83Z"/><path class="cls-80" d="M142.57,73.77c3.44,4.12,13.14,6.94,15,11.49s-6.1,11-6.1,11l.18-1s6.21-4.58,4.15-9.13c0,0-3.06,9.57-10.35,10.71a12.41,12.41,0,0,0,3.22-11.66,13.46,13.46,0,0,1-3.22,11.66l-.86.42s5.78-9.93-3.36-19.27c0,0,.43,23.49-20.61,17l-2.46-1.14s17.32-3.6,20.36-16.76c0,0-7.35,13.2-21.94,17.05l-3,.88s-8.75,23.55,4.42,27.25c0,0-9.37,1.71-9.94-5.49s3.74-21.13,3.74-21.13-3.7,6.87-4.06,12.44c0,0-1.57-4.59-3.93-6.31a13.12,13.12,0,0,0-5.46-2.39s-5.17,28.1-1,58.6c0,0-11.75,6.63-15.54,11.37s-6.44,4.74-14.4,8.34,3.86,25.2,3.86,25.2-5.94,7-9.73,8.71c0,0-8.15-1.11-11.37-7.85,0,0,5.75,5.64,13.45,4.88,0,0,1.65-3.82,1-4.88S48.72,193,53.9,179c0,0,21.72-5.05,25.26-11.5S86.55,98.4,95.08,80.4s18-18.7,22.61-19.27S135.94,65.81,142.57,73.77Z"/><path class="cls-81" d="M105.58,103.9s-4-7.12-10.42-3.68c-1.35.72-1.76,9.8,1.23,14.24s6.92,5.37,8.73,5.42,2.31-2.41,2.31-2.41S109.7,107.17,105.58,103.9Z"/><path class="cls-82" d="M102.75,106.07s-3.8-2.42-5.66-2.62-.92,7.14-.92,7.14-.54-5.31,1-5.75,4.17,2.18,4.17,2.18a5.88,5.88,0,0,0-2.72,5.31c.1,3.79,4.12,5.29,4.12,5.29a2.81,2.81,0,0,0,1.06-1.54c.32-1.07-1.6-3.44-1.68-4.72s1.37-1.47,1.37-1.47l1.56,1S104.44,107.56,102.75,106.07Z"/><path class="cls-19" d="M104.28,108.41a2.52,2.52,0,0,0-2.66-1.25c-1.66.47-3.79,3.93-2.94,6s3.32,3,4.31,2.2-1-2.9-.76-4.37,2.37-.62,2.37-.62Z"/><path class="cls-83" d="M112.38,93.34s-5.44,5.21-10.58,6.61c0,0-.28,25.86.22,47.33s-6.82,25.39-20.21,22L78,172.85a37.3,37.3,0,0,0,16.17,1.34c8.14-1.39,8.93-19.84,8.93-19.84s1.34,24.05-4.2,27.42-13.17-7.92-13.17-7.92l-1.85-.23s6.68,10.14,15.3,9.2,5-20.53,5.72-32.13,1.86-37.14,2.87-42.7S112.38,93.34,112.38,93.34Z"/><path class="cls-84" d="M141,245.68s20-5.56,35.54-43.07v-9.86s-18.91,17.63-32.86,32.78C143.69,225.53,138.62,233.33,141,245.68Z"/><path class="cls-85" d="M134.3,231.22l-1.52-1.2s15.39-52.55,25.11-68.34l2,.95Z"/><path class="cls-86" d="M134.3,231.22c-1-2.59,23.3-67.45,25.58-68.59s40-2.46,41.3-.95S168.69,229.23,166.89,230,134.86,232.76,134.3,231.22Z"/><path class="cls-71" d="M184.27,179.49a4,4,0,0,0-.43,4.48l4.19-.34s-5.65,1.49-7.83,5.28a14.32,14.32,0,0,0-1.66,8h.85l2,6.65,13.88-28S187.54,176.79,184.27,179.49Z"/><path class="cls-87" d="M196.27,173.65a33.89,33.89,0,0,1,.84,4.7c0,1.24-3.07,2.56-3.07,2.56s1.45,2.66,0,4.08a7.07,7.07,0,0,1-2.63,6.2c-3.19,2.61-7.33,3.52-11.5,3.7,0,0-.08-3.41,2.6-4.22l-1.44,0a6,6,0,0,1,3.83-5.44c4-1.85,8-4.27,8-4.27a35.94,35.94,0,0,1-8.72,1.61,3.51,3.51,0,0,1,1.36-3.93c2.17-1.37,9.7-3,9.7-3Z"/><path class="cls-88" d="M187.69,193.64a2.21,2.21,0,0,1,.75,2.91c-1,1.83-7.1,2.59-7.1,2.59s-1.11-2.59,1.11-3.88A15.3,15.3,0,0,1,187.69,193.64Z"/><path class="cls-89" d="M133.67,122.59s-2.34,2.08-.76,4a14.39,14.39,0,0,1,4.89.66,8.79,8.79,0,0,0,3.32-.61l2.13-1.54a4.73,4.73,0,0,0-2.83-.2,46.38,46.38,0,0,1-4.67,1.25,8.51,8.51,0,0,1-2.72-.1S131.74,125,133.67,122.59Z"/><path class="cls-90" d="M132.91,126.63s-2.15-2.64.76-4C133.67,122.59,131.71,123.79,132.91,126.63Z"/><path class="cls-91" d="M133.77,126.62a1.81,1.81,0,0,1,1.54-.65,5.86,5.86,0,0,1,1.95,1.14A15.77,15.77,0,0,0,133.77,126.62Z"/><path class="cls-92" d="M143.58,123.79a50.12,50.12,0,0,0-3.27-4.88c-1.84-2.42-.23-7.2-.23-7.2a3.88,3.88,0,0,0-4.56,0s-1.65,5.07-4.54,7.62a18,18,0,0,1-10.8-2.84c-5.3-3.46-5-8.24-5-8.24s1.18-4.17,4-5.47S136,101.13,136,101.13s4.06,4.52,8.12,3.12c0,0,4.15-2.25,5.43-1.16,0,0-3.13,8.72-2.55,11.08s2.06,6.21,1.91,8.72C148.86,122.89,147.37,125.07,143.58,123.79Z"/><path class="cls-19" d="M132.35,125.64c.34.67.77,1.39,4.23.4s5.15-1.57,6.67-.9c0,0-4,5.44-7.37,4.77S132.35,125.64,132.35,125.64Z"/><path class="cls-16" d="M140,117.15a10.85,10.85,0,0,1,6.64-1.83s-2.48,4.3-4.47,4.56S140,117.15,140,117.15Z"/><path class="cls-16" d="M117.5,112.66a18.18,18.18,0,0,1,12.63,2.66s-1.75,2-3.55,2.29S117.5,112.66,117.5,112.66Z"/><path class="cls-17" d="M140,117.15s3.31-1.9,6.27-1.23l3.19-2.11-2.55.36S144.05,113.33,140,117.15Z"/><path class="cls-17" d="M130.13,115.32s-3.62-2.84-12.63-2.66l-1.63-3.32,3.14,2S128.87,111.66,130.13,115.32Z"/><path class="cls-93" d="M121.77,115.48a5.83,5.83,0,0,1,5.42-1.67l2.94,1.51a6.25,6.25,0,0,1-3.55,2.29C124.57,117.85,121.77,115.48,121.77,115.48Z"/><path class="cls-93" d="M143.84,115.86a5.65,5.65,0,0,0-2.05,4s.39.2,1.82-.72a10.62,10.62,0,0,0,2.7-3.24A5.3,5.3,0,0,0,143.84,115.86Z"/><path class="cls-19" d="M139.57,117.15s2.94-6.93,4.77-7.57,2.34,4.54,2.34,4.54-.57-4.81-2.15-4.37-4.49,7.4-4.49,7.4Z"/><path class="cls-19" d="M130.13,115.32s.25-7-2.53-7.83-8.59,3.85-8.59,3.85,5.72-4.2,8.09-3.5,2.32,6.39,2.32,6.39Z"/><path class="cls-94" d="M143.58,105.09s3.12-4.67,7.23-6.2a3.86,3.86,0,0,1-1.48,5s-.16-.84-1.15-.56-4.93,2.37-4.93,2.37.24-3.22,2.46-4.26Z"/><path class="cls-95" d="M135.72,102s1.09-3.41,0-4.92v3.5s-.14-2.79-1.42-3.5-9.19-.24-15.3,5.66C119,102.78,128.8,101,135.72,102Z"/><path class="cls-96" d="M140.69,131.08l-4,2.75h0l-.3.21s-1.53,2-3,2.3c-1.13.19-3.54-3-5.17-5.87a19.7,19.7,0,0,1-1.31-2.69,10.25,10.25,0,0,0,3.59,3.39,18.66,18.66,0,0,0,6.65,1.48A12.6,12.6,0,0,0,140.69,131.08Z"/><path class="cls-97" d="M140.69,131.08l-4,2.75h0a8.51,8.51,0,0,1-2,0,20.92,20.92,0,0,1-6.49-3.36,19.7,19.7,0,0,1-1.31-2.69,10.25,10.25,0,0,0,3.59,3.39,18.66,18.66,0,0,0,6.65,1.48A12.6,12.6,0,0,0,140.69,131.08Z"/><path class="cls-19" d="M128.74,126.93s-2.58.49-3.3,2.4Z"/><path class="cls-71" d="M117.31,138.11s-8.92,3.49-12.38,11.55c0,0,1.08-19.25,2.58-27.49a50.62,50.62,0,0,0,10.15,12.44Z"/><path class="cls-98" d="M95.71,100S110.36,93.49,121.77,87c0,0-7.94,9.22-20,12.92Z"/><path class="cls-99" d="M97.22,99.28s3-20.34,11.5-28.55,26.15,2,26.15,2-17.44-9.47-26-1.13S97.22,99.28,97.22,99.28Z"/><path class="cls-100" d="M95.71,100S97.94,76.45,109,68.47a23.74,23.74,0,0,1,21.81-3.55s-14.3-5.65-23.68,3.92C95.93,80.21,95.71,100,95.71,100Z"/><path class="cls-101" d="M94.14,104.93A16.2,16.2,0,0,0,96.45,115s-13,10.91-7.56,48.42l-5.41,4S85.49,126.75,94.14,104.93Z"/><path class="cls-102" d="M144.62,97.21a14,14,0,0,0,4.08-12.08c-1.12-7.56-7.44-7.19-7.44-7.19S149.08,83.9,144.62,97.21Z"/><path class="cls-102" d="M140.69,76.67s-9.47-12.43-18.13-14.93C122.56,61.74,141.35,67.42,140.69,76.67Z"/><path class="cls-103" d="M103.79,172.94s9.24,13,16.56,19.31a34.48,34.48,0,0,0,16.43,7.45Z"/><path class="cls-104" d="M67.41,177.6s-6.75,1-7.88,9.34S66,202.7,66,202.7l5.28.1S59.53,180,67.41,177.6Z"/><path class="cls-21" d="M118.85,157.29s1.09,8.14-4.39,10.12c0,0,4.11,1.38,5.34-2.63a11.69,11.69,0,0,0,0-7.14Z"/><path class="cls-105" d="M95.17,210.54s1.61-9.89-3.13-25.87c0,0,5.42,7.09,5.75,24.78Z"/><path class="cls-106" d="M98.39,209.45a27.56,27.56,0,0,0,6.08-15.37s-3.34,10.22-6.68,15.37Z"/><path class="cls-107" d="M95.17,210.54s-3.57-6.42-8.62-7.24-14.65,9.54-14.65,9.54,8.67-7.34,14.08-7.16S92,211.81,92,211.81Z"/><path class="cls-108" d="M114.46,235.35s11.82-16.42,18.32-18.6L120.35,238Z"/><path class="cls-109" d="M111.8,233.88s.84-11-3-19.27c0,0-2.13,10.26.5,18.39Z"/><polygon class="cls-110" points="121.12 238.31 131.88 224.93 125.01 240.03 121.12 238.31"/><path class="cls-111" d="M86.27,214.07s28.45-10.65,34.86-17c1.14-1.14-1.38-11.12-1.56-13.83s.26-5.59.83-6,3.27-1.41,3.71-1.66,1.22-1.53,1.85-1.85,2.72-.6,3.09-1.1c.1-.13.45-.66.94-1.4,1.49-2.26,4.3-6.47,5.25-6.94,1.26-.63,3.26-1.21,4.27,0s4.81,9.68,4.81,9.68a4.32,4.32,0,0,1-4.36-.13,11.37,11.37,0,0,1-3.18-4.06s-2.2,1.72-2.39,2.67c0,0,4.79,2.46,7,4.86.67,2-2.78,5.88-3,6.26s4.87,4.23,3.29,10.48a83.21,83.21,0,0,0-12.95,6.32c-6.13,3.79-34,38.19-56.28,47.29C72.46,247.69,76.14,223.83,86.27,214.07Z"/><path class="cls-71" d="M83.48,241.59s-9.15-7.91,2.79-27.52c0,0-9.38,7.33-13.81,33.62A81.32,81.32,0,0,0,83.48,241.59Z"/><path class="cls-112" d="M124.57,184.67l.87-2.46,5.35,2.46-.9,4.14s.3,1.39,3.5-.13a5.12,5.12,0,0,0,3-2.4l2.05-2.68h0l1.57,2.1-7.88,4.5h-2.78Z"/><path class="cls-113" d="M144.32,174s-1.69-4.69-3.39-4.36,0,4.12,0,4.12A3.27,3.27,0,0,0,144.32,174Z"/><path class="cls-114" d="M136.78,169.81s-1.59-3.71-1.54-5.54c0,0-1.34.88-6.19,8.34,0,0,2-1.93,5.34-.13C134.39,172.48,136,170.65,136.78,169.81Z"/><path class="cls-21" d="M92,211.81a6.76,6.76,0,0,0-3.47-5.49s2.47-.22,6.6,4.22l2.27-7.28.35,6.19Z"/><path class="cls-115" d="M130.51,245.52a60.3,60.3,0,0,1-10.71-3.12c-7.29-2.66-12-6.92-17.43-7.39a43.75,43.75,0,0,0-8.9,0l-1,3.54a24.44,24.44,0,0,1,17.45.91,134.77,134.77,0,0,0,17.47,6.06Z"/><path class="cls-21" d="M69.84,296.21s18.23-48.32,25.33-58.39l-.36-2.93a5.88,5.88,0,0,1,3.35-4h-1l-3.5,3S86.23,261.65,72.42,264C72.42,264,68.79,268.32,69.84,296.21Z"/><path class="cls-116" d="M69.65,301s4.62,47.85,12.94,70.24H74S69.6,310.92,69.65,301Z"/><path class="cls-117" d="M101.13,254.14l15,117.07h7.45S111.85,313,101.13,254.14Z"/><path class="cls-118" d="M132.92,371.21s-9.76-76.23-7-123.52c0,0,2.13,55.28,23.33,123.52Z"/><path class="cls-119" d="M132.27,273.85s10.91,64.8,21.54,97.36h1.77S141.87,322.53,132.27,273.85Z"/><path class="cls-120" d="M104,238a230.29,230.29,0,0,0-7.59,67.71S98,264.81,104,238Z"/><path class="cls-121" d="M106.18,238s-4.56,19,11.22,70.24C117.4,308.21,106,261.62,106.18,238Z"/><path class="cls-20" d="M155.58,202.68s8.34-14,22.17-15.57C177.75,187.11,176.42,196.34,155.58,202.68Z"/><path class="cls-19" d="M182.51,190.67s6.84-1.23,11.56-5.45l-.08,1.54S191.51,189,182.51,190.67Z"/><path class="cls-113" d="M184.89,179.16s4.67-1.3,5.3.52-4.9,3-5.3,2.83C184.31,182.29,183.53,181.86,184.89,179.16Z"/><path class="cls-113" d="M182.33,188s-.93.79-.41,2.7c0,0,4.49-.83,4.84-2.7S182.33,188,182.33,188Z"/><path class="cls-113" d="M181.21,191.84s-1.1.74-.59,2.78c0,0,4.95-.21,4.9-2.1S181.21,191.84,181.21,191.84Z"/><path class="cls-113" d="M182,196.17a2.43,2.43,0,0,0-.39,2.88s3.61-.66,3.31-2.32S182,196.17,182,196.17Z"/><path class="cls-19" d="M192.94,180.91l2.82-.94-1.72.94L187.39,184S191.89,181.58,192.94,180.91Z"/><polygon class="cls-46" points="178.48 161.24 141.78 207.53 134.55 229.37 191.57 161.13 178.48 161.24"/><path class="cls-122" d="M101.13,227.28a4.09,4.09,0,0,0,3.34,3.6,45.2,45.2,0,0,0,4.43.9l2.9,2.1s10.33,3.66,14.52,3.27l-.4.73a12.11,12.11,0,0,1,2.55,3.31c.78,1.73-.09,0-.09,0L125,240s-15.83-7.16-19-8.47-8.94-.68-8.94-.68Z"/><path class="cls-122" d="M130,228.86l7.4-14L132.78,230l1.52,1.2s2.4,1.5,25.89-.48l-3.31,3.88-3.14,2.89s-9.59,6.14-13.35.46l-.51-1.26-8-1.13Z"/><path class="cls-122" d="M141,245.68s1,7.14,4.07,9S158.23,233,158.23,233,147.72,243.47,141,245.68Z"/><path class="cls-122" d="M72.46,247.69S71,255.47,71.9,258.6c7.46,2.87,19-16.64,19-16.64l2.73-8.08S82.54,243.7,72.46,247.69Z"/><path class="cls-123" d="M127.38,245.52s-4.83,36.52,0,68.71c0,0-2.09-39.5,2.89-56.52Z"/><path class="cls-124" d="M137.8,73.23s-9.06-3-27.66,13.32C110.14,86.55,128.43,65.49,137.8,73.23Z"/><path class="cls-125" d="M97.22,99.28l12.92-12.73A53.7,53.7,0,0,0,95.71,100Z"/><path class="cls-21" d="M95.93,144.83s-6,13.44-12.45,22.66c0,0,7.71-5.62,13.87-9.6Z"/><path class="cls-126" d="M129.05,160.41s1.18-3.55,4.32-3.92l-1.25-2.39s-4.2-1.39-4.42,4Z"/><path class="cls-112" d="M125.44,182.21l5.87,2a7,7,0,0,0,3.65-1.61l-6.49-3.55,7,3.14a5.2,5.2,0,0,0,3.05-2.24,62.62,62.62,0,0,0-5.37-4.41,20,20,0,0,1,5.37,3.93s2.48-.31,2.84-2.15c.65,1.3-1.37,4.17-3,6.26,0,0-1.87,4.7-5.48,5.65s-3.87-1.28-3.87-1.28Z"/><path class="cls-112" d="M141.69,194.08l-8.22,2.31-5.77,4.77s2-1.26,5.22-3.13A75,75,0,0,1,141.69,194.08Z"/><path class="cls-112" d="M139.18,184.67a33.9,33.9,0,0,1,3.6,5.14s.3-3.58.57-4.86L141,180.84Z"/><path class="cls-127" d="M82.59,256.7s.74,54.6,7.38,114.51H74S65,277.32,72.42,264C72.42,264,79.6,260.58,82.59,256.7Z"/><path class="cls-19" d="M140,117.15s.2,3.6,2.44,3.6,3.83-4.83,3.83-4.83-2,3.58-4.1,4S140,117.15,140,117.15Z"/><path class="cls-19" d="M117.5,112.66s5.26,4.74,7.94,5.68,4.1-2.42,4.1-2.42a5.28,5.28,0,0,1-3.1,1.7C123.81,117.28,117.5,112.66,117.5,112.66Z"/><path class="cls-128" d="M129.31,190.2a26,26,0,0,1,2.69,7.41l-4.3,3.55a70.2,70.2,0,0,1,14.22-7.08,12.64,12.64,0,0,0,.86-4.27,28.32,28.32,0,0,1,.57-4.86L141,180.84l-1.78,3.83-.78-1.07s-1.62,3.42-4.13,5c-1.87,1.14-4.66.39-4.66.39Z"/><path class="cls-129" d="M126,89.91c-2.43,1.41,1.91-2.92-11.49-4.35s-13.07-12.87-12.18-14-.74-1.35-.74-1.35A15.58,15.58,0,0,1,105,66.3s-2.22,2.89-2.11,9.22,10.68,10,19.64,10,10.79-1.81,10.79-1.81S128.47,88.44,126,89.91Z"/><path class="cls-129" d="M127.7,90.05s6.11-.9,7.82,3.2A15.49,15.49,0,0,0,139.64,87s-.77,1.23-3.44,1.32-2-3.31-2-3.31A26.26,26.26,0,0,1,127.7,90.05Z"/><path class="cls-129" d="M147.88,92.71a23,23,0,0,1,3.31-1.58,1.32,1.32,0,0,1,1.56.79,34,34,0,0,0,2.5-4.34s.33,1.16-2.26,1.57S148.94,87,148.94,87,149.07,90.76,147.88,92.71Z"/><path class="cls-130" d="M208.21,263.81l-.32-2L183,261s-28.26,25.95-44.82,56.84a48.65,48.65,0,0,0,25.37,7.07l.88,1.77S202.46,270.82,208.21,263.81Z"/><path class="cls-131" d="M163.56,324.88s28.1-45.6,44.33-63.09l.32,2s-25.58,33.41-43.77,62.84Z"/><path class="cls-132" d="M283.43,252.63s-59,11.12-66.06,13.77-24.51,19.18-25.06,19.7l15.9-22.29-.32-2-2.43-1.39A3.59,3.59,0,0,0,203,260l-.35.07-.57.19h0a6.54,6.54,0,0,0-2,1.23,4.4,4.4,0,0,1-.26.45c-.69,1-2.82,3.58-7.61,4.47a9.19,9.19,0,0,1-5.27-.33,5.06,5.06,0,0,1-2.59-2.13s4.83-2.27,10.39-5.5A125.37,125.37,0,0,0,207.07,250c2.37-.29,11.22,4.84,11.22,4.84s10.83-1,24.21-9.29A226.18,226.18,0,0,0,264,230.74C278.44,233.48,283.43,252.63,283.43,252.63Z"/><path class="cls-21" d="M261.92,231.78s16.42,3.1,12.9,22.49l8.61-1.64s-5.56-20.92-19.45-21.89Z"/><path class="cls-21" d="M204,269.42l12.86-2.81s-10.72,6.18-25.07,19.5Z"/><path class="cls-21" d="M193.62,265a21.74,21.74,0,0,0,6.28-3c-.69,1-2.37,5.15-7.16,6a14.93,14.93,0,0,1-6.86-.81c-.84-.54-.56-2.32-1.42-3.2A13.94,13.94,0,0,0,193.62,265Z"/><path class="cls-113" d="M184.46,264a20.19,20.19,0,0,0,5.18,1s4.42-2.6,3.6-4.14S184.46,264,184.46,264Z"/><path class="cls-133" d="M218.29,254.82a150.51,150.51,0,0,0,15.64-3.2c7.91-2.12,15.32-7.69,15.32-7.69l-.05-2.76S231.21,252.93,218.29,254.82Z"/><path class="cls-134" d="M142.3,315.53l19.8,4.55s27.86-38.89,38.06-51L178.61,268S157.68,285.41,142.3,315.53Z"/><path class="cls-135" d="M207.07,250s1.55,2.93-2.21,6.34a18.41,18.41,0,0,1-7,4.23l-1.8-2.48S204,253.11,207.07,250Z"/><path class="cls-136" d="M138.19,317.81l2.18,3.31a63.19,63.19,0,0,0,24.07,5.53l-.88-1.77S149.09,325.17,138.19,317.81Z"/><polygon class="cls-137" points="150.98 307.71 148.25 307.12 152.4 301.09 155.13 301.68 150.98 307.71"/><polygon class="cls-138" points="155.11 308.61 152.38 308.02 156.53 301.99 159.26 302.58 155.11 308.61"/><polygon class="cls-139" points="159.43 309.55 156.7 308.95 160.85 302.93 163.58 303.52 159.43 309.55"/><polygon class="cls-140" points="163.7 310.48 160.97 309.88 165.12 303.85 167.85 304.45 163.7 310.48"/><polygon class="cls-141" points="167.71 311.35 164.98 310.75 169.13 304.73 171.86 305.32 167.71 311.35"/></g></g></g></svg>