<svg xmlns="http://www.w3.org/2000/svg" xmlns:xlink="http://www.w3.org/1999/xlink" viewBox="0 0 909.8 796.84"><defs><style>.cls-1{fill:url(#linear-gradient);}.cls-2{fill:url(#linear-gradient-2);}.cls-3{fill:url(#linear-gradient-3);}</style><linearGradient id="linear-gradient" x1="8585.22" y1="-10793.41" x2="988.38" y2="-2108.79" gradientTransform="matrix(0.07, 0, 0, -0.07, 194.62, 5.68)" gradientUnits="userSpaceOnUse"><stop offset="0" stop-color="#29169a"/><stop offset="1" stop-color="#9538d0"/></linearGradient><linearGradient id="linear-gradient-2" x1="3793.26" y1="-6735.34" x2="9747.62" y2="743.71" gradientTransform="matrix(0.07, 0, 0, -0.07, 194.62, 5.68)" gradientUnits="userSpaceOnUse"><stop offset="0" stop-color="#f9e890"/><stop offset="1" stop-color="#d40682"/></linearGradient><linearGradient id="linear-gradient-3" x1="-1894.95" y1="-10661.99" x2="2450.31" y2="-4483.44" gradientTransform="matrix(0.07, 0, 0, -0.07, 194.62, 5.68)" gradientUnits="userSpaceOnUse"><stop offset="0" stop-color="#d40682"/><stop offset="1" stop-color="#f9e890"/></linearGradient></defs><g id="Capa_2" data-name="Capa 2"><g id="Layer_1" data-name="Layer 1"><g id="Layer_1-2" data-name="Layer_1"><g id="_1034190096" data-name=" 1034190096"><path class="cls-1" d="M163.12,330.26C184.43,196.05,306.33,93.17,453.57,93.17,562.43,93.17,657.4,149.4,708.16,233c-22.11,44.42-51.55,83.95-83.95,121.54,51.55-41.69,131.11-106.92,172.58-161.93C730.05,77.76,601.38,0,453.57,0,237.21,0,61.82,166.68,61.82,372.24a358.13,358.13,0,0,0,10.29,85.17c27.29-28.72,58-55.44,87.77-79.48v-.44l.29.15c26.35-21.24,51.91-40.32,73.66-56.88C209.27,328.68,185,334.87,163.12,330.26ZM676,434.66a317.79,317.79,0,0,0,68-20.09c-21.45,134-143.28,236.74-290.37,236.74-105.27,0-197.64-52.63-249.48-131.76,15.48-44.79,52.2-80,81.5-118.66-34,27.51-67.75,55.3-99.86,85.11l-.07.72-.22-.43c-24.19,22.31-49.75,47.44-70,73.94,68,110.16,194,184.17,338.11,184.17,90.5,0,173.88-29.16,240.19-78.12L811.48,783.93a44.45,44.45,0,0,0,62.64,0h0a44.06,44.06,0,0,0,12.16-23.18L756.61,631.08a3,3,0,0,1,0-4.18h0a3.1,3.1,0,0,1,4.18,0L887,753.19a44.14,44.14,0,0,0-12.88-31.9L758.63,605.8c54.22-63.86,86.76-145.15,86.76-233.56a355.12,355.12,0,0,0-7.85-74.16C788.65,349.63,732.28,391.82,676,434.66Z"/><path class="cls-2" d="M659,427.46a85.32,85.32,0,0,1,1.23,14.19c0,43.34-33.48,81.21-77.69,81.21S504.83,485,504.83,441.65s33.41-81.29,77.69-81.29A75,75,0,0,1,625.57,374c95.84-77.26,367.49-294.7,94.25-274.83a393,393,0,0,0-91.29-60c25.34-5.48,50.9-10,76.6-13,70.06-8.2,183.24-9.72,203.11,78.27l.08.43.07.5C927.32,232.56,751,357.12,659,427.46Zm-76.46.15c-7.49,0-12.67,6.91-12.67,14s5.18,14,12.67,14,12.6-6.91,12.6-14S589.94,427.61,582.52,427.61Z"/><path class="cls-3" d="M250.82,328a85.32,85.32,0,0,1-1.23-14.19c0-43.41,33.48-81.21,77.69-81.21S405,270.36,405,313.77s-33.41,81.29-77.69,81.29a75,75,0,0,1-43-13.61C190.7,456.84-89.52,681,199.41,655.48A395.36,395.36,0,0,0,295.89,713a835.88,835.88,0,0,1-91.22,16.35c-70.06,8.2-183.24,9.72-203.11-78.27l-.08-.43-.07-.5C-17.52,522.86,158.8,398.23,250.82,328Zm76.46-.15c7.49,0,12.67-6.91,12.67-14s-5.18-14-12.67-14-12.6,6.84-12.6,14S319.86,327.81,327.28,327.81Z"/></g></g></g></g></svg>